<?xml version="1.0" encoding="utf-8"?>
<svg xmlns="http://www.w3.org/2000/svg" viewBox="0 0 500 500">
  <defs>
    <linearGradient gradientUnits="userSpaceOnUse" x1="4259.348" y1="-13394.727" x2="4259.348" y2="-9609.924" id="gradient-1" gradientTransform="matrix(-0.744121, 0.668045, -0.63216, -0.704151, -993.997, -8049.200317)">
      <stop offset="0" style="stop-color: #00CEBA"/>
      <stop offset="1" style="stop-color: #0197D6"/>
    </linearGradient>
    <linearGradient gradientUnits="userSpaceOnUse" x1="3223.4" y1="2759.166" x2="3223.4" y2="3053.036" id="gradient-2" gradientTransform="matrix(-0.767113, 0.641512, -1.218211, -1.456724, 9254.267679, 4961.360304)">
      <stop offset="0" style="stop-color: #00CEBA"/>
      <stop offset="1" style="stop-color: #0197D6"/>
    </linearGradient>
    <linearGradient gradientUnits="userSpaceOnUse" x1="4058.335" y1="3888.903" x2="4058.335" y2="7300.187" id="gradient-3" gradientTransform="matrix(-0.746941, 0.664891, -0.797578, -0.895996, 11347.603459, 4588.321481)">
      <stop offset="0" style="stop-color: #00CEBA"/>
      <stop offset="1" style="stop-color: #0197D6"/>
    </linearGradient>
  </defs>
  <g transform="matrix(0.1, 0, 0, -0.1, -74.473198, 543.030212)" fill="#000000" stroke="none">
    <path d="M 3078.8 5281.71 C 2892.69 5236.65 2714.41 5087.76 2634.08 4911.44 C 2600.78 4836.99 2590.98 4772.34 2585.11 4570.55 L 2577.27 4319.79 L 2383.32 4319.79 C 2214.84 4319.79 2188.28 4308.304 2150.19 4280.61 C 2133.261 4268.302 2113.311 4248.153 2111 4215.96 C 2110.018 4202.276 2089.45 3943.64 2062.03 3643.9 C 1960.15 2488.03 1934.69 2184.37 1911.18 1892.47 L 1887.67 1608.106 C 1894.555 1569.049 1901.451 1567.605 1930.804 1549.721 C 1997.018 1524.092 2038.52 1518.28 3231.61 1518.28 C 3231.61 1518.28 4257.775 1507.21 4483.47 1518.28 C 4523.129 1520.225 4552.088 1567.26 4552.088 1567.26 C 4574 1616.139 4575.618 1624.138 4569.67 1700.47 C 4566.14 1745.773 4532.45 2100.13 4499.14 2488.03 C 4342.42 4341.34 4352.21 4245.34 4305.19 4284.52 C 4269.93 4311.95 4224.87 4319.79 4077.94 4319.79 L 3893.78 4319.79 L 3893.78 4501.98 C 3893.78 4725.32 3854.6 4885.97 3768.4 5017.23 C 3627.35 5230.77 3335.44 5342.44 3078.8 5281.71 Z M 3474.54 5152.41 C 3597.96 5097.55 3697.87 4999.6 3758.61 4876.17 C 3797.79 4795.85 3805.62 4742.95 3811.5 4549 L 3819.34 4319.79 L 3235.53 4323.71 L 2649.76 4329.58 L 2651.71 4525.49 C 2651.71 4633.25 2663.47 4752.75 2675.23 4791.93 C 2741.83 4987.84 2900.52 5138.69 3094.47 5189.63 C 3221.81 5222.93 3341.32 5211.18 3474.54 5152.41 Z M 2581.19 3986.74 C 2581.19 3929.93 2589.02 3908.38 2610.57 3908.38 C 2630.17 3908.38 2639.96 3929.93 2639.96 3976.95 C 2639.96 4053.35 2671.31 4069.02 2696.77 4002.41 C 2730.08 3910.34 2663.47 3833.93 2569.43 3857.44 C 2496.95 3877.03 2469.52 3953.44 2510.66 4016.13 C 2557.68 4086.66 2581.19 4076.86 2581.19 3986.74 Z M 3815.42 3984.78 C 3815.42 3920.13 3821.3 3906.42 3850.68 3912.3 C 3872.23 3916.21 3887.91 3943.64 3893.78 3986.74 C 3903.58 4053.35 3905.54 4053.35 3929.05 4012.21 C 3981.94 3918.17 3876.15 3816.3 3780.16 3867.24 C 3723.34 3898.58 3707.67 3961.27 3744.89 4016.13 C 3791.91 4086.66 3815.42 4076.86 3815.42 3984.78 Z M 3472.58 3428.4 C 3772.32 3338.28 3966.27 3064.01 3987.82 2699.62 L 3997.62 2537.01 L 3445.15 2537.01 L 2894.64 2537.01 L 2924.03 2464.52 C 2963.21 2370.49 3004.35 2325.43 3098.39 2278.41 C 3213.98 2219.64 3456.9 2233.35 3597.96 2307.79 C 3654.77 2337.18 3705.71 2360.69 3709.63 2360.69 C 3721.38 2360.69 3874.19 2127.56 3874.19 2107.97 C 3874.19 2078.58 3692 1974.75 3580.33 1941.44 C 3155.2 1814.1 2722.24 1970.83 2555.72 2307.79 C 2338.26 2752.51 2557.68 3285.39 3018.07 3428.4 C 3129.73 3463.66 3356.99 3463.66 3472.58 3428.4 Z" style="stroke: url(&quot;#gradient-0&quot;); stroke-dashoffset: 6px; paint-order: fill; fill-rule: nonzero; fill: url(&quot;#gradient-1&quot;);"/>
    <path d="M 3070.96 3081.64 C 2988.68 3038.54 2896.6 2920.99 2894.64 2856.34 C 2894.64 2836.75 2978.88 2830.87 3247.28 2830.87 C 3515.68 2830.87 3599.92 2836.75 3599.92 2856.34 C 3599.92 2868.1 3580.33 2915.12 3554.86 2958.22 C 3500 3056.17 3374.62 3124.74 3247.28 3124.74 C 3192.43 3124.74 3123.86 3107.11 3070.96 3081.64 Z" style="paint-order: fill; fill-rule: nonzero; fill: url(&quot;#gradient-2&quot;);"/>
    <path d="M 1333.23 3896.62 C 1297.97 3878.99 1254.87 3841.77 1235.28 3812.38 C 1201.97 3765.36 1200.01 3681.12 1200.01 2448.85 C 1200.01 1191.11 1201.97 1134.3 1237.23 1073.56 C 1305.8 961.892 1307.76 959.933 2140.39 950.138 L 2904.44 940.342 L 2910.32 863.937 C 2918.15 767.942 2880.93 677.823 2828.03 666.068 C 2806.48 660.191 2659.55 654.314 2502.82 650.396 C 2220.71 646.477 2218.76 646.477 2212.88 599.459 C 2208.96 573.991 2216.8 544.604 2232.47 536.768 C 2265.77 515.218 4189.61 515.218 4222.91 536.768 C 4238.59 544.604 4246.42 573.991 4242.5 599.459 C 4236.63 646.477 4234.67 646.477 3948.64 652.355 C 3662.61 658.232 3660.65 658.232 3619.51 709.169 C 3588.16 748.351 3580.33 783.614 3584.25 850.224 L 3590.12 940.342 L 4334.58 950.138 C 5026.14 959.933 5082.96 961.892 5141.73 997.157 C 5257.32 1067.69 5255.36 1036.34 5255.36 2450.81 C 5255.36 3853.52 5259.27 3810.42 5149.56 3882.91 C 5108.42 3910.34 5045.73 3920.13 4826.31 3924.05 L 4554 3931.89 L 4565.75 3855.48 C 4573.59 3814.34 4579.47 3761.45 4579.47 3737.94 C 4579.47 3694.84 4585.35 3692.88 4777.34 3692.88 C 4885.09 3692.88 4990.88 3683.08 5012.43 3673.29 C 5047.69 3653.7 5049.65 3618.43 5049.65 2462.56 C 5049.65 1561.38 5043.77 1265.55 5026.14 1247.92 C 4992.84 1214.62 1462.54 1214.62 1429.23 1247.92 C 1411.6 1265.55 1405.72 1561.38 1405.72 2462.56 C 1405.72 3618.43 1407.68 3653.7 1442.95 3673.29 C 1464.5 3683.08 1568.33 3692.88 1676.08 3692.88 C 1895.5 3692.88 1895.5 3692.88 1895.5 3841.77 L 1895.5 3927.97 L 1646.7 3927.97 C 1458.62 3927.97 1380.25 3920.13 1333.23 3896.62 Z" style="paint-order: fill; fill-rule: nonzero; fill: url(&quot;#gradient-3&quot;);"/>
  </g>
</svg>